<svg width="215" height="165" viewBox="0 0 215 165" xmlns="http://www.w3.org/2000/svg" xmlns:xlink="http://www.w3.org/1999/xlink"><title>Otary_logo-met-baseline_rgb_neg</title><defs><path id="a" d="M78.711 117.313H.295V.19H78.71z"/><path id="c" d="M39.903 11.62H.114V.265h39.789V11.62z"/><path id="e" d="M.219 11.62h19.445V.265H.22z"/></defs><g fill="none" fill-rule="evenodd"><path d="M107.421 36.98c2.08 0 3.746 1.48 3.746 3.56 0 2.094-1.667 3.561-3.732 3.561-2.08 0-3.745-1.467-3.745-3.56 0-2.082 1.666-3.562 3.731-3.562M85.479 77.806c-.905 0-1.78-.307-2.675-.938a4.848 4.848 0 0 1-.312-.237 5.438 5.438 0 0 1-.329-.213c-1.446-1.018-3.435-3.343-.523-7.487l16.031-24.775c.542-.837 1.453-1.358 2.38-1.358.506 0 .989.151 1.395.437l6.04 4.253a2.44 2.44 0 0 1 1.005 1.644c.118.762-.1 1.573-.594 2.223L89.98 74.884c-1.348 1.92-2.876 2.922-4.501 2.922m14.503-40.358c-1.087 0-2.085-.706-2.542-1.8L86.036 8.354c-.867-1.867-1.055-3.455-.547-4.791.597-1.575 1.967-2.211 2.417-2.42a5.31 5.31 0 0 1 .364-.152c.109-.06.227-.122.351-.18.736-.341 1.421-.508 2.094-.508 1.912 0 3.475 1.278 4.644 3.8l13.422 26.28c.372.727.442 1.563.19 2.293a2.436 2.436 0 0 1-1.28 1.44l-6.7 3.11a2.38 2.38 0 0 1-1.01.222m46.492 12.801c-.321 0-.667-.015-1.04-.049l-29.456-1.506c-.816-.042-1.574-.4-2.08-.982a2.445 2.445 0 0 1-.605-1.829l.659-7.362c.118-1.32 1.298-2.314 2.742-2.314.13 0 .264.009.398.026l29.322 3.763c4.974.445 5.463 3.466 5.307 5.226-.014.138-.03.269-.05.389a5.317 5.317 0 0 1-.022.405c-.243 2.726-2.081 4.233-5.175 4.233" fill="#00AEDD"/><path d="M137.301 57.044c1.42.517 2.192 1.942 1.675 3.364-.52 1.43-2.022 2.019-3.433 1.505-1.42-.517-2.195-1.933-1.675-3.364.516-1.421 2.022-2.019 3.433-1.505m-25.124 22.438c-.618-.225-1.14-.652-1.595-1.305a3.487 3.487 0 0 1-.154-.24 3.923 3.923 0 0 1-.172-.227c-.735-1.055-1.517-3.138 1.5-5.245l17.103-12.941c.578-.438 1.33-.567 1.963-.336.345.125.638.348.844.645l3.072 4.406c.276.396.374.884.278 1.374a2.145 2.145 0 0 1-.958 1.37l-18.08 11.622c-1.398.976-2.69 1.28-3.801.877m19.925-23.967c-.742-.27-1.249-1-1.29-1.861l-1.016-21.482c-.129-1.492.137-2.623.815-3.41.8-.927 1.893-1.021 2.253-1.052a4.11 4.11 0 0 1 .286-.014c.089-.014.185-.027.284-.035.587-.05 1.098.006 1.556.173 1.307.476 2.058 1.737 2.23 3.75l2.647 21.292a2.147 2.147 0 0 1-.439 1.613 1.77 1.77 0 0 1-1.232.666l-5.348.46a1.735 1.735 0 0 1-.746-.1m28.585 20.303a8.524 8.524 0 0 1-.698-.293l-19.75-8.35a2.15 2.15 0 0 1-1.177-1.189 1.777 1.777 0 0 1 .04-1.4l2.278-4.866c.408-.871 1.46-1.258 2.447-.899.09.032.178.071.266.116l19.098 9.86c3.288 1.54 2.872 3.726 2.329 4.89a4.169 4.169 0 0 1-.13.253 3.751 3.751 0 0 1-.117.272c-.842 1.802-2.472 2.374-4.586 1.606" fill="#FFF"/><path d="M74.713 44.298c.497.894.259 1.964-.635 2.461-.9.5-1.927.134-2.42-.754-.497-.894-.265-1.961.634-2.462.894-.497 1.928-.134 2.421.755m-22.775.313c-.216-.39-.293-.839-.236-1.375.006-.066.016-.13.027-.19a2.72 2.72 0 0 1 .013-.193c.092-.865.616-2.276 3.09-2.013l14.47.979c.49.032.93.3 1.152.699.12.217.171.461.145.704l-.384 3.614c-.034.325-.2.617-.466.824-.3.233-.7.334-1.096.276l-14.385-2.087c-1.147-.121-1.942-.54-2.33-1.238m20.797-3.401c-.26-.467-.195-1.065.166-1.523L81.9 28.263c.595-.82 1.231-1.28 1.927-1.38.819-.119 1.42.318 1.616.462.054.04.106.08.152.12.053.032.107.068.162.108.322.235.557.49.718.78.456.822.28 1.8-.523 2.904l-8.081 12.05a1.449 1.449 0 0 1-.94.63 1.2 1.2 0 0 1-.924-.207l-2.935-2.138a1.171 1.171 0 0 1-.337-.382" fill="#7BBF78"/><g transform="translate(4.4 47.184)"><mask id="b" fill="#fff"><use xlink:href="#a"/></mask><path d="M73.94 17.08a5.689 5.689 0 0 1-.227-.46L67.325 3.593a1.456 1.456 0 0 1-.075-1.13c.115-.317.343-.564.64-.697L71.21.29c.595-.264 1.304.006 1.649.627.031.056.059.115.084.177l5.386 13.512c.998 2.245-.183 3.177-.976 3.53a2.815 2.815 0 0 1-.18.072 1.99 1.99 0 0 1-.179.087c-1.229.547-2.315.116-3.054-1.215" fill="#7BBF78" mask="url(#b)"/><path d="M5.89 116.33c2.471 0 4.472-2.064 4.472-4.755 0-2.629-2-4.615-4.472-4.615-2.484 0-4.47 1.986-4.47 4.615 0 2.69 1.986 4.756 4.47 4.756zm0-10.371c3.112 0 5.597 2.456 5.597 5.616 0 3.222-2.485 5.757-5.597 5.757-3.11 0-5.595-2.535-5.595-5.757 0-3.16 2.486-5.616 5.595-5.616z" fill="#00AEDD" mask="url(#b)"/></g><path fill="#00AEDD" d="M18.72 153.33h5.783v.971h-4.705v4.129h4.033v.97h-4.033v4.927h-1.079v-10.996"/><g transform="translate(27.032 152.878)"><mask id="d" fill="#fff"><use xlink:href="#c"/></mask><path fill="#00AEDD" mask="url(#d)" d="M.114.453H5.9v.97H1.193v4.13h4.033v.97H1.193v4.927H.114V.453M8.369 9.4s1.14 1.205 2.876 1.205c1.204 0 2.189-.718 2.189-1.909 0-2.767-5.487-2.063-5.487-5.474 0-1.58 1.391-2.957 3.423-2.957 1.908 0 2.94 1.063 2.94 1.063l-.532.908s-.97-.938-2.408-.938c-1.407 0-2.313.923-2.313 1.892 0 2.613 5.487 1.862 5.487 5.476 0 1.642-1.266 2.973-3.33 2.973-2.251 0-3.486-1.408-3.486-1.408l.641-.83M17.343.453h1.08v5.006H24.8V.453h1.079V11.45h-1.08V6.43h-6.377v5.02h-1.079V.453m16.964 10.185c2.47 0 4.47-2.066 4.47-4.756 0-2.63-2-4.615-4.47-4.615-2.486 0-4.472 1.986-4.472 4.615 0 2.69 1.986 4.756 4.472 4.756zm0-10.373c3.11 0 5.596 2.457 5.596 5.617 0 3.221-2.486 5.757-5.596 5.757-3.111 0-5.597-2.536-5.597-5.757 0-3.16 2.486-5.617 5.597-5.617z"/></g><path d="M73.456 158.727c1.328 0 2.172-.86 2.172-2.236 0-.908-.36-1.581-1-1.925-.329-.171-.719-.265-1.564-.265h-2.22v4.426h2.612zm-3.69-5.396h3.252c1.125 0 1.625.11 2.064.297 1.031.453 1.656 1.502 1.656 2.83 0 1.488-.844 2.63-2.079 2.974v.03s.11.142.281.44l2.392 4.425h-1.235l-2.485-4.63h-2.767v4.63h-1.079v-10.996zm10.21-.001h6.19v.971h-5.112v4.005h4.174v.969h-4.174v4.084h5.393v.968h-6.471v-10.996m13.914-.001h6.192v.971H94.97v4.005h4.173v.969H94.97v4.084h5.393v.968h-6.472v-10.996m9.318-.001h1.047l5.612 7.916c.375.548.907 1.486.907 1.486h.032s-.095-.908-.095-1.486v-7.915h1.079v10.996h-1.047l-5.612-7.916c-.376-.547-.906-1.485-.906-1.485h-.032s.094.908.094 1.485v7.916h-1.08v-10.996m12.163-.001h6.192v.971h-5.112v4.005h4.173v.969h-4.173v4.084h5.393v.968h-6.473v-10.996" fill="#00AEDD"/><g transform="translate(124.474 152.878)"><mask id="f" fill="#fff"><use xlink:href="#e"/></mask><path d="M3.907 5.85c1.328 0 2.172-.861 2.172-2.237 0-.907-.358-1.58-1-1.925-.328-.17-.718-.265-1.562-.265h-2.22V5.85h2.61zM.22.453h3.25c1.125 0 1.625.11 2.062.297 1.033.454 1.657 1.502 1.657 2.83 0 1.488-.844 2.63-2.078 2.974v.03s.11.142.28.44l2.392 4.426H6.55L4.064 6.82H1.297v4.63H.219V.453zM15.225.265c2.548 0 3.908 1.283 3.908 1.283l-.577.813s-1.283-1.094-3.284-1.094c-2.658 0-4.455 2.05-4.455 4.662 0 2.706 1.86 4.709 4.362 4.709 2.14 0 3.454-1.612 3.454-1.612V7.164h-1.875v-.97h2.906v5.256h-1v-.828c0-.235.016-.47.016-.47h-.03s-1.267 1.487-3.581 1.487c-3.002 0-5.377-2.425-5.377-5.696 0-3.175 2.375-5.678 5.533-5.678" fill="#00AEDD" mask="url(#f)"/></g><path d="M149.488 159.604l-3.705-6.273h1.236l2.328 3.988c.327.564.673 1.315.673 1.315h.03s.328-.735.673-1.315l2.329-3.988h1.22l-3.69 6.273v4.723h-1.094v-4.723" fill="#00AEDD"/><path d="M24.239 132.207c7.074 0 13.026-5.525 13.026-13.726 0-8.115-5.952-13.726-13.026-13.726-7.16 0-13.111 5.611-13.111 13.726 0 8.2 5.951 13.726 13.111 13.726zm-.086-36.775c13.456 0 24.239 9.582 24.239 23.05 0 13.552-10.783 23.048-24.153 23.048C10.783 141.53 0 132.034 0 118.48c0-13.467 10.783-23.049 24.153-23.049zm34.469 10.446H52.93v-8.72h5.951V84.47h10.696v12.69h10.007v8.719H69.577v17.092c0 7.25 5.693 8.286 8.713 8.286 1.207 0 1.984-.172 1.984-.172v9.582s-1.294.26-3.365.26c-6.125 0-18.287-1.815-18.287-16.575v-18.473m84.988 7.163c0-14.76 12.162-16.574 18.287-16.574 2.07 0 3.364.26 3.364.26v9.58s-.776-.17-1.984-.17c-3.019 0-8.712 1.035-8.712 8.286l-.26 26.069H143.61v-27.451m30.185 34.53s2.415 1.813 4.917 1.813c3.019 0 5.951-1.813 7.591-5.698l1.639-3.885-18.547-43.334h12.336l9.23 25.38c.863 2.33 1.638 5.956 1.638 5.956h.173s.69-3.453 1.467-5.785l8.626-25.551h11.99l-19.668 50.672c-3.105 8.028-9.23 11.482-15.871 11.482-5.262 0-9.144-2.85-9.144-2.85l3.623-8.2m-63.937-15.366c-7.159 0-13.11-5.524-13.11-13.726 0-8.115 5.951-13.726 13.11-13.726 7.074 0 13.026 5.611 13.026 13.726 0 8.202-5.952 13.726-13.026 13.726zm13.026-35.738v2.446c-3.77-2.227-8.263-3.482-13.112-3.482-13.37 0-24.152 9.582-24.152 23.048 0 13.553 10.782 23.05 24.238 23.05 4.809 0 9.272-1.24 13.026-3.448v2.41h10.956V96.469h-10.956z" fill="#FFF"/></g></svg>